<svg xmlns="http://www.w3.org/2000/svg" viewBox="0 0 1040 200" width="1040" height="200" role="img" aria-label="brooks-lint diagnostic pipeline">
  <g>
    <rect x="20" y="36" width="210" height="128" rx="16"
          fill="#fffdf8" stroke="#e3d8c2" stroke-width="1.5"/>
    <rect x="20" y="160" width="210" height="4" rx="2" fill="#3b82f6"/>
    <circle cx="125" cy="66" r="7" fill="#3b82f6"/>
    <text x="125" y="108" text-anchor="middle" font-family='-apple-system, BlinkMacSystemFont, "Segoe UI", "PingFang SC", "Hiragino Sans", "Microsoft YaHei", "Malgun Gothic", sans-serif'
          font-size="19" font-weight="700" fill="#2a2520">你的程式碼</text>
    <text x="125" y="134" text-anchor="middle" font-family='-apple-system, BlinkMacSystemFont, "Segoe UI", "PingFang SC", "Hiragino Sans", "Microsoft YaHei", "Malgun Gothic", sans-serif'
          font-size="13" fill="#5c5347">PR 或整個儲存庫</text>
  </g>
  <g>
    <rect x="283" y="36" width="210" height="128" rx="16"
          fill="#fffdf8" stroke="#e3d8c2" stroke-width="1.5"/>
    <rect x="283" y="160" width="210" height="4" rx="2" fill="#6366f1"/>
    <circle cx="388" cy="66" r="7" fill="#6366f1"/>
    <text x="388" y="108" text-anchor="middle" font-family='-apple-system, BlinkMacSystemFont, "Segoe UI", "PingFang SC", "Hiragino Sans", "Microsoft YaHei", "Malgun Gothic", sans-serif'
          font-size="19" font-weight="700" fill="#2a2520">十二本經典</text>
    <text x="388" y="134" text-anchor="middle" font-family='-apple-system, BlinkMacSystemFont, "Segoe UI", "PingFang SC", "Hiragino Sans", "Microsoft YaHei", "Malgun Gothic", sans-serif'
          font-size="13" fill="#5c5347">布魯克斯 · 福勒 · 馬丁</text>
  </g>
  <g>
    <rect x="547" y="36" width="210" height="128" rx="16"
          fill="#fffdf8" stroke="#e3d8c2" stroke-width="1.5"/>
    <rect x="547" y="160" width="210" height="4" rx="2" fill="#b07d2b"/>
    <circle cx="652" cy="66" r="7" fill="#b07d2b"/>
    <text x="652" y="108" text-anchor="middle" font-family='-apple-system, BlinkMacSystemFont, "Segoe UI", "PingFang SC", "Hiragino Sans", "Microsoft YaHei", "Malgun Gothic", sans-serif'
          font-size="19" font-weight="700" fill="#2a2520">十二類衰退風險</text>
    <text x="652" y="134" text-anchor="middle" font-family='-apple-system, BlinkMacSystemFont, "Segoe UI", "PingFang SC", "Hiragino Sans", "Microsoft YaHei", "Malgun Gothic", sans-serif'
          font-size="13" fill="#5c5347">R1–R6 · T1–T6</text>
  </g>
  <g>
    <rect x="810" y="36" width="210" height="128" rx="16"
          fill="#fffdf8" stroke="#e3d8c2" stroke-width="1.5"/>
    <rect x="810" y="160" width="210" height="4" rx="2" fill="#22c55e"/>
    <circle cx="915" cy="66" r="7" fill="#22c55e"/>
    <text x="915" y="108" text-anchor="middle" font-family='-apple-system, BlinkMacSystemFont, "Segoe UI", "PingFang SC", "Hiragino Sans", "Microsoft YaHei", "Malgun Gothic", sans-serif'
          font-size="19" font-weight="700" fill="#2a2520">帶出處的結論</text>
    <text x="915" y="134" text-anchor="middle" font-family='-apple-system, BlinkMacSystemFont, "Segoe UI", "PingFang SC", "Hiragino Sans", "Microsoft YaHei", "Malgun Gothic", sans-serif'
          font-size="13" fill="#5c5347">症狀 → 對策</text>
  </g>
  <g stroke="#b07d2b" stroke-width="2.5" fill="none" stroke-linecap="round">
    <line x1="236" y1="100" x2="273" y2="100"/>
    <polyline points="267,94 275,100 267,106" stroke-linejoin="round"/>
  </g>
  <g stroke="#b07d2b" stroke-width="2.5" fill="none" stroke-linecap="round">
    <line x1="499" y1="100" x2="537" y2="100"/>
    <polyline points="531,94 539,100 531,106" stroke-linejoin="round"/>
  </g>
  <g stroke="#b07d2b" stroke-width="2.5" fill="none" stroke-linecap="round">
    <line x1="763" y1="100" x2="800" y2="100"/>
    <polyline points="794,94 802,100 794,106" stroke-linejoin="round"/>
  </g>
</svg>
